<link>
<?xml version="1.0" encoding="UTF-8" standalone="no" ?>
<!DOCTYPE svg PUBLIC "-//W3C//DTD SVG 1.1//EN" "http://www.w3.org/Graphics/SVG/1.1/DTD/svg11.dtd">
<svg xmlns="http://www.w3.org/2000/svg" xmlns:xlink="http://www.w3.org/1999/xlink" version="1.1" width="192" height="192" viewBox="0 0 192 192" xml:space="preserve">
<desc>Created with Fabric.js 5.3.0</desc>
<defs>
</defs>
<g transform="matrix(2.0833333135 0 0 2.0833333135 250.5378058194 250.5378058194)" id="6PmQkgo0UkDjmIy1njThW"  >
<g style=""   >
		<g transform="matrix(1 0 0 1 -3.1235612184 -17.6907251143)" style="" id="Z3-m2PJjxgS0GRnB3gH10">
		<text xml:space="preserve" font-family="Open Sans" font-size="29" font-style="normal" font-weight="normal" line-height="1" style="stroke: none; stroke-width: 1; stroke-dasharray: none; stroke-linecap: butt; stroke-dashoffset: 0; stroke-linejoin: miter; stroke-miterlimit: 4; fill: rgb(0,0,0); fill-rule: nonzero; opacity: 1; white-space: pre;"><tspan x="-36.9565217391" y="-0.5918965217"/></text>
<style>
        </style></g>		<g transform="matrix(0 0.996 -0.996 0 60 -60)" id="s-s0gBKwvdk7dT72okKPx"  >
<path style="stroke: rgb(184,188,148); stroke-width: 0; stroke-dasharray: none; stroke-linecap: butt; stroke-dashoffset: 0; stroke-linejoin: miter; stroke-miterlimit: 4; fill: rgb(233,237,204); fill-rule: nonzero; opacity: 1;"  transform=" translate(-0.000005, 0.000005)" d="M -60.24096 -29.74649 C -60.24096 -46.58813000000001 -46.58812 -60.240970000000004 -29.746480000000002 -60.240970000000004 L 60.24096999999999 -60.240970000000004 L 60.24096999999999 60.24096 L -60.240960000000015 60.24096 z" stroke-linecap="round" />
</g>
		<g transform="matrix(0.996 0 0 0.996 -60 -60)" id="X9KgL__6X24hFIdyc1hFT"  >
<path style="stroke: rgb(184,188,148); stroke-width: 0; stroke-dasharray: none; stroke-linecap: butt; stroke-dashoffset: 0; stroke-linejoin: miter; stroke-miterlimit: 4; fill: rgb(119,153,84); fill-rule: nonzero; opacity: 1;"  transform=" translate(-0.000005, 0.000005)" d="M -60.24096 -29.74649 C -60.24096 -46.58813000000001 -46.58812 -60.240970000000004 -29.746480000000002 -60.240970000000004 L 60.24096999999999 -60.240970000000004 L 60.24096999999999 60.24096 L -60.240960000000015 60.24096 z" stroke-linecap="round" />
</g>
		<g transform="matrix(-0.996 0 0 -0.996 60 60)" id="y5SzoYSJITaoLXrG9C_21"  >
<path style="stroke: rgb(184,188,148); stroke-width: 0; stroke-dasharray: none; stroke-linecap: butt; stroke-dashoffset: 0; stroke-linejoin: miter; stroke-miterlimit: 4; fill: rgb(119,153,84); fill-rule: nonzero; opacity: 1;"  transform=" translate(-0.000005, 0.000005)" d="M -60.24096 -29.74649 C -60.24096 -46.58813000000001 -46.58812 -60.240970000000004 -29.746480000000002 -60.240970000000004 L 60.24096999999999 -60.240970000000004 L 60.24096999999999 60.24096 L -60.240960000000015 60.24096 z" stroke-linecap="round" />
</g>
		<g transform="matrix(0 -0.996 0.996 0 -60 60)" id="Dt84WPgdNh79NkCuaU6K-"  >
<path style="stroke: rgb(184,188,148); stroke-width: 0; stroke-dasharray: none; stroke-linecap: butt; stroke-dashoffset: 0; stroke-linejoin: miter; stroke-miterlimit: 4; fill: rgb(233,237,204); fill-rule: nonzero; opacity: 1;"  transform=" translate(-0.000005, 0.000005)" d="M -60.24096 -29.74649 C -60.24096 -46.58813000000001 -46.58812 -60.240970000000004 -29.746480000000002 -60.240970000000004 L 60.24096999999999 -60.240970000000004 L 60.24096999999999 60.24096 L -60.240960000000015 60.24096 z" stroke-linecap="round" />
</g>
		<g transform="matrix(3.0168233114 0 0 3.0168233114 59.6934680808 58.9999554985)" id="jDIyKjTRatq_a03Yfjtx-"  >
<path style="stroke: rgb(0,0,0); stroke-width: 0; stroke-dasharray: none; stroke-linecap: round; stroke-dashoffset: 0; stroke-linejoin: miter; stroke-miterlimit: 4; fill: rgb(233,237,204); fill-rule: nonzero; opacity: 1;"  transform=" translate(-22.5, -24.25)" d="M 22.5 9 C 20.29 9 18.5 10.79 18.5 13 C 18.5 13.89 18.79 14.71 19.28 15.379999999999999 C 17.33 16.5 16 18.59 16 21 C 16 23.03 16.94 24.84 18.41 26.03 C 15.41 27.09 11 31.58 11 39.5 L 34 39.5 C 34 31.58 29.59 27.09 26.59 26.03 C 28.06 24.84 29 23.03 29 21 C 29 18.59 27.67 16.5 25.72 15.38 C 26.21 14.71 26.5 13.89 26.5 13 C 26.5 10.79 24.71 9 22.5 9 z" stroke-linecap="round" />
</g>
</g>
</g>
</svg>